<svg xmlns="http://www.w3.org/2000/svg" width="31.375" height="31.41" viewBox="0 0 31.375 31.41">
  <defs>
    <style>
      .cls-1 {
        fill: #fff;
        fill-rule: evenodd;
        opacity: 0.8;
      }
    </style>
  </defs>
  <path id="ВК" class="cls-1" d="M185.865,2372.23a15.69,15.69,0,1,1-15.692,15.69A15.687,15.687,0,0,1,185.865,2372.23Zm5.968,18.25a3.1,3.1,0,0,0-.758-2.2,3.7,3.7,0,0,0-2.016-1.09v-0.07a2.881,2.881,0,0,0,1.371-1.14,3.211,3.211,0,0,0,.5-1.77,3.133,3.133,0,0,0-.362-1.52,2.6,2.6,0,0,0-1.091-1.05,4.514,4.514,0,0,0-1.446-.48,17.993,17.993,0,0,0-2.269-.11h-4.8v13.59H186.4a8.906,8.906,0,0,0,2.331-.25,4.774,4.774,0,0,0,1.686-.86,3.673,3.673,0,0,0,1.032-1.27,3.909,3.909,0,0,0,.384-1.78h0Zm-4.373-5.59a1.5,1.5,0,0,0-.169-0.67,1,1,0,0,0-.527-0.5,2.11,2.11,0,0,0-.8-0.17c-0.309,0-.767-0.01-1.375-0.01h-0.237v2.88h0.43c0.583,0,.994-0.01,1.229-0.02a2.045,2.045,0,0,0,.726-0.19,1.129,1.129,0,0,0,.563-0.53,1.9,1.9,0,0,0,.157-0.79h0Zm0.856,5.53a1.673,1.673,0,0,0-.255-0.99,1.533,1.533,0,0,0-.767-0.54,2.658,2.658,0,0,0-.853-0.13c-0.362-.01-0.848-0.01-1.456-0.01h-0.63v3.4h0.184c0.888,0,1.5-.01,1.843-0.02a2.867,2.867,0,0,0,1.04-.24,1.381,1.381,0,0,0,.68-0.59A1.813,1.813,0,0,0,188.316,2390.42Z" transform="translate(-170.188 -2372.22)"/>
</svg>
