<svg xmlns="http://www.w3.org/2000/svg" width="47.406" height="47.38" viewBox="0 0 47.406 47.38">
  <defs>
    <style>
      .cls-1 {
        fill: #323232;
        fill-rule: evenodd;
      }
    </style>
  </defs>
  <path id="Корова" class="cls-1" d="M499.578,1349a2.42,2.42,0,0,1-2.127,1.04,9.366,9.366,0,0,1-3.256-.84,17.086,17.086,0,0,1-1.576,8.35,5.2,5.2,0,0,1,.517,3.08c-0.488,3.38-4.283,5.23-8.524,5.23s-8.018-1.85-8.48-5.23a5.164,5.164,0,0,1,.33-2.62,17.331,17.331,0,0,1-1.786-8.73,8.929,8.929,0,0,1-3.065.76,2.42,2.42,0,0,1-2.127-1.04,2.328,2.328,0,0,1-.162-2.22c0.812-1.91,3.593-2.74,4.75-3.01l0.1-.02c-1.4-2.9-.723-7.6-0.2-9.19l3.057,0.25c0.056,1,.766,2.88,3.436,5.01l1.585,1.09a12.922,12.922,0,0,1,2.4-.23,12.732,12.732,0,0,1,2.289.21l1.692-1.16c2.67-2.13,3.38-4.01,3.435-5.01l3.058-.26c0.528,1.6,1.207,6.35-.224,9.24l0.294,0.07c1.157,0.27,3.937,1.1,4.75,3.01A2.326,2.326,0,0,1,499.578,1349Zm-25.069-3.28s-2.859.66-3.362,1.85,3.155-.14,3.835-0.7A2.326,2.326,0,0,1,474.509,1345.72Zm3.3,0.07c-1.752,2.75-1.578,7,.467,11.37l0.367,0.78-0.318.8a3.209,3.209,0,0,0-.208,1.62c0.329,2.41,3.6,3.5,6.5,3.5s6.2-1.1,6.545-3.52a3.177,3.177,0,0,0-.33-1.9l-0.416-.84,0.378-.86c1.878-4.25,1.97-8.37.244-11.02-1.3-1.99-3.575-3.04-6.587-3.04C481.4,1342.68,479.1,1343.75,477.806,1345.79Zm20.093,1.78c-0.5-1.19-3.361-1.85-3.361-1.85a2.318,2.318,0,0,1-.474,1.15C494.745,1347.43,498.4,1348.75,497.9,1347.57Zm-18.57-6.1s-3.6-2.48-3.735-5.02c-0.4,2.18-.584,5.62.7,6.99A21,21,0,0,1,479.329,1341.47Zm10.232-.1s3.6-2.47,3.736-5.01c0.4,2.17.584,5.61-.705,6.98A22.893,22.893,0,0,0,489.561,1341.37Zm-5.378-15.57a23.7,23.7,0,1,1-23.7,23.7A23.7,23.7,0,0,1,484.183,1325.8Zm0,45.4a21.7,21.7,0,1,1,21.7-21.7A21.722,21.722,0,0,1,484.183,1371.2Z" transform="translate(-460.469 -1325.81)"/>
</svg>
