<svg xmlns="http://www.w3.org/2000/svg" width="47.375" height="47.38" viewBox="0 0 47.375 47.38">
  <defs>
    <style>
      .cls-1 {
        fill: #323232;
        fill-rule: evenodd;
      }
    </style>
  </defs>
  <path id="Листик" class="cls-1" d="M64.437,1498.62s-22.24-10.18,0-32.75C86.678,1488.44,64.437,1498.62,64.437,1498.62Zm7.516-17.18-6.537,4.16h0l-0.021,3.68,6.894-4.41A13.366,13.366,0,0,0,71.953,1481.44Zm-15.39,3.19,6.833,4.48v-3.62l-6.453-4.15A13.627,13.627,0,0,0,56.563,1484.63Zm6.833-1.52v-3.63L59,1476.1a21.745,21.745,0,0,0-1.464,3.24Zm0-6.09v-7.04a39.181,39.181,0,0,0-3.356,4.42Zm2,0.28,3.63-2.6a39.493,39.493,0,0,0-3.63-4.82v7.42Zm0.021,2.3h0l-0.021,3.68,5.981-3.85a21.739,21.739,0,0,0-1.337-3.01Zm6.443,7.9-6.443,4.1h0l-0.021,4.16A15.3,15.3,0,0,0,71.859,1487.5Zm-8.463,8.2v-4.21l-6.417-4.13C58.085,1491.5,61.3,1494.29,63.4,1495.7Zm1.1-36.9a23.7,23.7,0,1,1-23.7,23.7A23.7,23.7,0,0,1,64.5,1458.8Zm0,45.4a21.7,21.7,0,1,1,21.7-21.7A21.722,21.722,0,0,1,64.5,1504.2Z" transform="translate(-40.813 -1458.81)"/>
</svg>
