<svg xmlns="http://www.w3.org/2000/svg" width="31.376" height="31.41" viewBox="0 0 31.376 31.41">
  <defs>
    <style>
      .cls-1 {
        fill: #fff;
        fill-rule: evenodd;
        opacity: 0.8;
      }
    </style>
  </defs>
  <path id="Инста" class="cls-1" d="M87.865,2372.23a15.69,15.69,0,1,1-15.692,15.69A15.688,15.688,0,0,1,87.865,2372.23Zm6.272,23.61a1.745,1.745,0,0,0,1.745-1.75v-12.31a1.743,1.743,0,0,0-1.745-1.74H81.809a1.743,1.743,0,0,0-1.745,1.74v12.31a1.745,1.745,0,0,0,1.745,1.75H94.136Zm-1.375-9.1a4.921,4.921,0,1,1-9.529,0h-1.38v6.78a0.609,0.609,0,0,0,.611.61H93.529a0.609,0.609,0,0,0,.611-0.61v-6.78H92.761ZM88,2385.13a2.848,2.848,0,1,1,0,5.68A2.84,2.84,0,0,1,88,2385.13Zm3.7-3.31H93.56a0.609,0.609,0,0,1,.611.61v1.86a0.609,0.609,0,0,1-.611.61H91.7a0.609,0.609,0,0,1-.611-0.61v-1.86A0.609,0.609,0,0,1,91.7,2381.82Z" transform="translate(-72.188 -2372.22)"/>
</svg>
