<svg xmlns="http://www.w3.org/2000/svg" width="47.375" height="47.38" viewBox="0 0 47.375 47.38">
  <defs>
    <style>
      .cls-1 {
        fill: #323232;
        fill-rule: evenodd;
      }
    </style>
  </defs>
  <path id="Мороженко" class="cls-1" d="M70.454,1335.45a8.575,8.575,0,0,0-14.639,6.06v14.68a0.808,0.808,0,0,0,.809.81H72.157a0.808,0.808,0,0,0,.809-0.81v-14.68A8.512,8.512,0,0,0,70.454,1335.45Zm0.894,19.93H57.433v-10.89c0.045,0.05.092,0.1,0.143,0.16a2.619,2.619,0,0,0,4.309,0,1.185,1.185,0,0,1,.946-0.6,1,1,0,0,1,.309.43,10.764,10.764,0,0,1,.488,1.22,9.6,9.6,0,0,0,.7,1.65,1.753,1.753,0,0,0,3.237,0,9.614,9.614,0,0,0,.7-1.65,10.67,10.67,0,0,1,.488-1.22,1,1,0,0,1,.309-0.43,1.186,1.186,0,0,1,.946.6,3.205,3.205,0,0,0,1.346,1v9.73Zm-9.006,8.58a2.049,2.049,0,1,0,4.1,0v-6.16h-4.1v6.16ZM64.5,1325.8a23.7,23.7,0,1,1-23.7,23.7A23.7,23.7,0,0,1,64.5,1325.8Zm0,45.4a21.7,21.7,0,1,1,21.7-21.7A21.722,21.722,0,0,1,64.5,1371.2Z" transform="translate(-40.813 -1325.81)"/>
</svg>
