<svg xmlns="http://www.w3.org/2000/svg" width="47.406" height="47.38" viewBox="0 0 47.406 47.38">
  <defs>
    <style>
      .cls-1 {
        fill: #323232;
        fill-rule: evenodd;
      }
    </style>
  </defs>
  <path id="Градусник" class="cls-1" d="M484.023,1497.33a6.814,6.814,0,0,1-6.823-6.77,8.038,8.038,0,0,1,1.822-4.6v-14.84a5,5,0,0,1,10,0v14.91a7.629,7.629,0,0,1,1.778,4.53A6.775,6.775,0,0,1,484.023,1497.33Zm0-2a4.8,4.8,0,0,1-4.8-4.77,5.237,5.237,0,0,1,1.845-3.78v-15.66a3,3,0,0,1,6,0v15.72a5.092,5.092,0,0,1,1.754,3.72A4.8,4.8,0,0,1,484.023,1495.33Zm2.706-4.91a2.774,2.774,0,1,1-3.675-2.61v-16.84a0.949,0.949,0,0,1,1.9,0v16.87A2.765,2.765,0,0,1,486.729,1490.42ZM492,1474h4a1,1,0,0,1,0,2h-4A1,1,0,0,1,492,1474Zm0-4h4a1,1,0,0,1,0,2h-4A1,1,0,0,1,492,1470Zm0,8h4a1,1,0,0,1,0,2h-4A1,1,0,0,1,492,1478Zm0,4h4a1,1,0,0,1,0,2h-4A1,1,0,0,1,492,1482Zm-7.817-23.2a23.7,23.7,0,1,1-23.7,23.7A23.7,23.7,0,0,1,484.183,1458.8Zm0,45.4a21.7,21.7,0,1,1,21.7-21.7A21.722,21.722,0,0,1,484.183,1504.2Z" transform="translate(-460.469 -1458.81)"/>
</svg>
